<svg width="106" height="32" viewBox="0 0 106 32" fill="none" xmlns="http://www.w3.org/2000/svg">
<path d="M98.4926 0H7.44093C7.14196 0 6.87621 0 6.57725 0C6.34472 0 6.11219 0 5.84644 0C5.31495 0 4.78345 0.0669456 4.28518 0.133891C3.7869 0.23431 3.28862 0.401674 2.79035 0.635983C2.32529 0.903766 1.89345 1.20502 1.52805 1.57322C1.16264 1.94142 0.863679 2.37657 0.597932 2.84519C0.365403 3.34728 0.199311 3.84937 0.132874 4.35146C0.0332184 4.88703 0 5.38912 0 5.92469C0 6.159 0 6.39331 0 6.66109V25.3389C0 25.5732 0 25.8075 0 26.0753C0 26.6109 0.0664368 27.1464 0.132874 27.6485C0.232529 28.1841 0.398621 28.6862 0.63115 29.1548C0.863679 29.6234 1.19586 30.0586 1.56127 30.4268C1.92667 30.795 2.35851 31.1297 2.82357 31.364C3.28862 31.5983 3.7869 31.7657 4.3184 31.8661C4.84989 31.9665 5.34817 32 5.87966 32C6.11219 32 6.34472 32 6.61047 32C6.90943 32 7.17518 32 7.47415 32H98.5258C98.7916 32 99.0906 32 99.3895 32C99.6221 32 99.8878 32 100.12 32C100.652 32 101.183 31.9331 101.682 31.8661C102.213 31.7657 102.711 31.5983 103.176 31.364C103.641 31.1297 104.073 30.795 104.439 30.4268C104.804 30.0586 105.136 29.6234 105.369 29.1548C105.601 28.6862 105.767 28.1841 105.867 27.6485C105.967 27.113 106 26.6109 106 26.0753C106 25.841 106 25.6067 106 25.3389C106 25.0377 106 24.7699 106 24.4686V7.53138C106 7.23013 106 6.96234 106 6.66109C106 6.42678 106 6.159 106 5.92469C106 5.38912 105.934 4.85356 105.867 4.35146C105.767 3.8159 105.601 3.31381 105.369 2.84519C104.871 1.90795 104.107 1.1046 103.176 0.635983C102.711 0.401674 102.213 0.23431 101.682 0.133891C101.15 0.0334728 100.652 0 100.12 0C99.8878 0 99.6221 0 99.3895 0C99.0573 0 98.7584 0 98.4926 0Z" fill="#B7B7B7"/>
<path d="M6.61065 31.3641C6.37812 31.3641 6.14559 31.3641 5.91306 31.3641C5.41479 31.3641 4.91651 31.3306 4.45145 31.2302C3.95318 31.1298 3.52134 30.9959 3.12271 30.7951C2.72409 30.5942 2.35869 30.3264 2.02651 29.9917C1.69432 29.657 1.42857 29.2888 1.22926 28.8871C1.02995 28.4854 0.863861 28.0168 0.797425 27.5817C0.730988 27.0796 0.664551 26.611 0.664551 26.1089C0.664551 25.9415 0.664551 25.3725 0.664551 25.3725V6.66116C0.664551 6.66116 0.664551 6.1256 0.664551 5.95823C0.664551 5.45614 0.697769 4.95405 0.797425 4.48543C0.863861 4.01681 1.02995 3.58166 1.22926 3.17999C1.42857 2.77832 1.69432 2.41012 2.02651 2.07539C2.35869 1.74066 2.72409 1.47288 3.12271 1.27204C3.52134 1.0712 3.95318 0.90384 4.41823 0.836894C4.91651 0.769949 5.38157 0.703003 5.87984 0.703003H6.57743H99.3233H100.054C100.552 0.703003 101.017 0.736476 101.516 0.836894C101.981 0.90384 102.413 1.0712 102.811 1.27204C103.642 1.70719 104.273 2.37664 104.705 3.17999C104.904 3.58166 105.037 4.01681 105.137 4.48543C105.203 4.98752 105.269 5.48961 105.269 5.99171C105.269 6.22602 105.269 6.46032 105.269 6.69463C105.269 6.99589 105.269 7.26367 105.269 7.56493V24.5356C105.269 24.8369 105.269 25.1047 105.269 25.3725C105.269 25.6402 105.269 25.8746 105.269 26.1089C105.269 26.611 105.203 27.0796 105.137 27.5817C105.07 28.0503 104.904 28.4854 104.705 28.8871C104.505 29.2888 104.24 29.657 103.907 29.9917C103.575 30.3264 103.21 30.5942 102.811 30.7951C102.413 30.9959 101.948 31.1633 101.516 31.2302C101.017 31.2971 100.552 31.3641 100.054 31.3641C99.8216 31.3641 99.589 31.3641 99.3565 31.3641H98.4928H6.61065Z" fill="#010101"/>
<path d="M39.2963 21.6697H35.6091L34.7122 24.1467H33.0845L36.6721 14.8748H38.2001L41.8874 24.1467H40.1932L39.2963 21.6697ZM36.0741 20.3978H38.8313L37.8347 17.7534C37.7018 17.3852 37.569 16.9835 37.4361 16.5484C37.3032 16.9501 37.2036 17.3517 37.0375 17.7534L36.0741 20.3978Z" fill="white"/>
<path d="M42.6182 18.9251C42.6182 18.423 42.585 17.854 42.5518 17.2514H44.0466C44.113 17.5527 44.1462 17.8205 44.1462 18.1217C44.6777 17.4858 45.4418 17.1176 46.239 17.1176C47.2023 17.1176 48.066 17.6866 48.4646 18.5569C48.7304 19.1594 48.83 19.7954 48.83 20.4648C48.8633 21.1678 48.6972 21.8707 48.4314 22.5401C48.1989 23.0757 47.8003 23.5443 47.302 23.8456C46.7705 24.1468 46.2058 24.3142 45.6079 24.2807C45.1428 24.2807 44.6777 24.2138 44.2459 24.0464V26.8916L42.6846 27.0255L42.6182 18.9251ZM46.7373 22.4397C47.1027 21.8707 47.2688 21.2012 47.2023 20.5318C47.2023 19.7619 47.0695 19.1929 46.8037 18.8581C46.5712 18.5234 46.1726 18.3226 45.7407 18.3226C45.4418 18.3226 45.1428 18.3895 44.9103 18.5234C44.6445 18.6908 44.3788 18.8916 44.1795 19.0924V22.7745C44.3456 22.8414 44.5449 22.9083 44.711 22.9418C44.9103 22.9753 45.1096 23.0088 45.3421 23.0088C45.9068 23.1427 46.4051 22.8749 46.7373 22.4397Z" fill="white"/>
<path d="M49.8267 18.9251C49.8267 18.423 49.7935 17.854 49.7603 17.2514H51.2219C51.2883 17.5527 51.3215 17.8205 51.3215 18.1217C51.853 17.4858 52.617 17.1176 53.4143 17.1176C54.3776 17.1176 55.2413 17.6866 55.6399 18.5569C55.9057 19.1594 56.0053 19.7954 56.0053 20.4648C56.0385 21.1678 55.8724 21.8707 55.6067 22.5401C55.3742 23.0757 54.9755 23.5443 54.4773 23.8456C53.9458 24.1468 53.3811 24.3142 52.7831 24.2807C52.3181 24.2807 51.853 24.2138 51.4212 24.0464V26.8916L49.8599 27.0255L49.8267 18.9251ZM53.9458 22.4397C54.3112 21.8707 54.4773 21.2012 54.4108 20.5318C54.4108 19.7619 54.278 19.1929 54.0122 18.8581C53.7797 18.5234 53.3811 18.3226 52.9492 18.3226C52.6503 18.3226 52.3513 18.3895 52.1188 18.5234C51.853 18.6908 51.5873 18.8916 51.388 19.0924V22.7745C51.554 22.8414 51.7534 22.9083 51.9195 22.9418C52.1188 22.9753 52.3181 23.0088 52.5506 23.0088C53.0821 23.1427 53.6136 22.8749 53.9458 22.4397Z" fill="white"/>
<path d="M58.9948 23.7116C58.3304 23.3434 57.7657 22.7743 57.4335 22.1049C57.0681 21.335 56.8688 20.4647 56.902 19.6279C56.8688 18.6907 57.1013 17.7869 57.5332 16.9835C57.9318 16.2806 58.5297 15.7116 59.2273 15.3434C59.9913 14.9752 60.8218 14.7743 61.6523 14.8078C62.1505 14.8078 62.682 14.8748 63.1803 14.9752C63.6454 15.0756 64.0772 15.243 64.509 15.4438L64.1104 16.6488C63.3796 16.2806 62.5492 16.0798 61.7187 16.0463C61.1208 16.0463 60.556 16.1802 60.0246 16.448C59.5263 16.7158 59.1609 17.1509 58.8951 17.653C58.6294 18.2555 58.4633 18.925 58.4965 19.5944C58.4965 20.1969 58.5962 20.7994 58.7955 21.3685C58.9948 21.8706 59.327 22.2722 59.7588 22.5735C60.2571 22.8748 60.855 23.0421 61.4197 23.0086C61.7187 23.0086 62.0177 22.9752 62.3498 22.9417C62.6488 22.9082 62.9146 22.8078 63.2135 22.7074V20.8329H61.0875V19.5944H64.7416V23.4773C64.2101 23.7116 63.6454 23.9124 63.0807 24.0463C62.5159 24.1802 61.9512 24.2471 61.3533 24.2471C60.556 24.2806 59.7256 24.0798 58.9948 23.7116Z" fill="white"/>
<path d="M70.3886 24.1467C70.3222 23.8454 70.289 23.5442 70.289 23.2429C70.0232 23.5442 69.691 23.812 69.3588 23.9793C68.9602 24.1802 68.4952 24.2806 68.0633 24.2806C67.6979 24.2806 67.3325 24.2136 67.0003 24.0463C66.6682 23.8789 66.4024 23.6446 66.2363 23.3433C66.037 23.0086 65.9374 22.6069 65.9374 22.2053C65.9041 21.6028 66.1699 21.0003 66.6682 20.5986C67.1332 20.1969 67.9305 19.9961 69.0599 19.9961C69.4917 19.9961 69.8903 20.0295 70.289 20.0965V19.9626C70.289 19.3601 70.1561 18.9249 69.8903 18.6906C69.5914 18.4228 69.1928 18.289 68.7941 18.3224C68.4287 18.3224 68.0633 18.3894 67.7311 18.4563C67.399 18.5567 67.0668 18.6572 66.7346 18.8245L66.5021 17.6864C66.8675 17.5191 67.2329 17.4187 67.5983 17.3182C68.0633 17.2178 68.5616 17.1509 69.0599 17.1509C69.5914 17.1509 70.0897 17.2178 70.5547 17.4187C70.9866 17.6195 71.3187 17.9208 71.518 18.3559C71.7838 18.9249 71.8835 19.5274 71.8835 20.13V22.8747C71.8835 23.176 71.9167 23.5777 71.9499 24.1802L70.3886 24.1467ZM69.4585 22.8747C69.7575 22.7408 70.0232 22.54 70.2557 22.2722V21.0003C69.9236 20.9668 69.5582 20.9333 69.1928 20.9333C68.5616 20.9333 68.0965 21.0337 67.864 21.2346C67.6315 21.4354 67.4654 21.7701 67.4986 22.0714C67.4654 22.3392 67.5651 22.6404 67.7644 22.8413C67.9637 23.0086 68.2294 23.109 68.4952 23.0756C68.8274 23.0756 69.1595 23.0086 69.4585 22.8747Z" fill="white"/>
<path d="M73.1792 22.4731V14.3392L74.7405 14.2053V22.2053C74.7072 22.4396 74.7737 22.6405 74.8733 22.8413C75.0062 22.9752 75.1723 23.0421 75.3384 23.0087C75.4713 23.0087 75.6041 22.9752 75.737 22.9417L75.9363 24.0798C75.7702 24.1467 75.5709 24.1802 75.4048 24.2137C75.2055 24.2472 75.0062 24.2806 74.8069 24.2806C73.7439 24.2806 73.1792 23.6781 73.1792 22.4731Z" fill="white"/>
<path d="M77.0991 22.4731V14.3392L78.6604 14.2053V22.2053C78.6272 22.4396 78.6936 22.6405 78.7933 22.8413C78.9261 22.9752 79.0922 23.0421 79.2583 23.0087C79.3912 23.0087 79.5241 22.9752 79.6569 22.9417L79.8563 24.0798C79.6902 24.1467 79.4908 24.1802 79.3248 24.2137C79.1254 24.2472 78.9261 24.2806 78.7268 24.2806C77.6306 24.2806 77.0991 23.6781 77.0991 22.4731Z" fill="white"/>
<path d="M86.3667 20.8999H81.8822C81.9486 22.3392 82.6462 23.0756 83.9417 23.0756C84.2739 23.0756 84.6061 23.0422 84.9383 22.9418C85.2705 22.8748 85.6027 22.7744 85.9016 22.6405L86.2338 23.7116C85.4366 24.0798 84.5397 24.2807 83.6428 24.2807C83.0116 24.3141 82.3805 24.1468 81.8158 23.879C81.3175 23.6112 80.9189 23.1761 80.6863 22.674C80.4206 22.0715 80.2877 21.4355 80.3209 20.7995C80.2877 20.13 80.4538 19.4606 80.7196 18.8246C80.9521 18.289 81.3507 17.8539 81.849 17.5526C82.3473 17.2514 82.912 17.1175 83.5099 17.1175C84.0746 17.084 84.6393 17.2514 85.1376 17.5861C85.5694 17.8874 85.9016 18.3225 86.1009 18.7911C86.3003 19.3267 86.4331 19.8957 86.3999 20.4648L86.3667 20.8999ZM84.8386 19.8957C84.8386 19.4606 84.7058 19.0254 84.44 18.6572C84.1743 18.3895 83.8421 18.2221 83.4435 18.2556C83.0781 18.2556 82.7127 18.3895 82.4469 18.6572C82.148 18.992 81.9819 19.4271 81.9154 19.8957H84.8386Z" fill="white"/>
<path d="M87.6289 18.9585C87.6289 18.5903 87.5957 17.9877 87.5625 17.2179H89.0241C89.0573 17.4187 89.0573 17.653 89.0905 17.9208C89.1238 18.1886 89.1238 18.3894 89.1238 18.5568C89.2899 18.289 89.4559 18.0212 89.6553 17.7869C89.8214 17.5861 90.0207 17.4187 90.2864 17.2848C90.5189 17.1509 90.8179 17.084 91.0837 17.084C91.283 17.084 91.5155 17.1175 91.7148 17.1509L91.5487 18.5568C91.3826 18.5233 91.2165 18.4898 91.0504 18.4898C90.7182 18.4898 90.3861 18.5903 90.0871 18.7911C89.7549 19.0589 89.4559 19.3601 89.1902 19.7283V24.1467H87.6289V18.9585Z" fill="white"/>
<path d="M92.6785 26.9585C92.4792 26.925 92.3131 26.8915 92.1138 26.8246L92.4127 25.6865C92.5124 25.72 92.6453 25.7534 92.8114 25.7869C92.9775 25.8204 93.1103 25.8204 93.2764 25.8204C93.974 25.8204 94.5055 25.3852 94.8377 24.4815L94.9373 24.2137L92.4127 17.2513H94.1069L95.3692 21.1342C95.5353 21.6363 95.6681 22.1384 95.7678 22.6739C95.9007 22.1718 96.0335 21.6698 96.1996 21.1677L97.4952 17.2513H99.0896L96.565 24.2472C96.3657 24.8162 96.1332 25.3518 95.801 25.8539C95.5685 26.2221 95.2363 26.5568 94.8377 26.7576C94.4058 26.9585 93.9408 27.0589 93.4757 27.0589C93.1768 27.0254 92.911 26.9919 92.6785 26.9585Z" fill="white"/>
<path d="M12.5925 5.82959C8.44016 5.82959 6.91211 7.36934 6.91211 11.5534V20.4572C6.91211 24.6413 8.44016 26.1811 12.5925 26.1811H21.4286C25.5809 26.1811 27.1089 24.6413 27.1089 20.4572V11.5534C27.1421 7.36934 25.6141 5.82959 21.4618 5.82959H12.5925Z" fill="#C00020"/>
<path d="M10.9315 16.0387H11.463V18.7165H10.9315V17.6454H9.70239V18.7165H9.1709V16.0387H9.70239V17.1099H10.8983V16.0387H10.9315ZM13.9544 17.545C13.9544 17.9801 13.755 18.2145 13.3564 18.2145C12.9578 18.2145 12.7585 17.9801 12.7585 17.545V16.0387H12.227V17.545C12.227 18.2814 12.6256 18.7165 13.3564 18.7165C14.0872 18.7165 14.4858 18.2814 14.4858 17.5115V16.0052H13.9544V17.545ZM20.133 17.8463L19.535 16.0387H19.1032L18.5053 17.8797L17.9073 16.0387H17.3426L18.2727 18.7165H18.7046L19.3025 16.976L19.9004 18.7165H20.3323L21.2624 16.0387H20.6977L20.133 17.8463ZM22.259 17.545H23.2223V17.0764H22.259V16.5408H23.6874V16.0387H21.7275V18.7165H23.7206V18.2145H22.259V17.545ZM24.3517 18.6831H24.8832V16.0052H24.3517V18.6831ZM15.5488 18.1475L15.3163 18.7165H14.7848L15.9475 16.0387H16.4125L17.5752 18.7165H17.0104L16.7779 18.1475H15.5488ZM15.7481 17.6454H16.5454L16.1468 16.7082L15.7481 17.6454Z" fill="white"/>
<path d="M17.0103 12.6245C15.1501 12.6245 13.6553 11.1183 13.6553 9.24377H14.1203C14.1203 10.8505 15.4159 12.1559 17.0103 12.1559C18.6048 12.1559 19.9003 10.8505 19.9003 9.24377H20.3654C20.3986 11.1183 18.8706 12.6245 17.0103 12.6245Z" fill="white"/>
<path d="M34.3819 10.9121C34.0165 10.7113 33.7507 10.41 33.5514 10.0418C33.3521 9.67361 33.2524 9.23846 33.2524 8.73637C33.2524 8.2008 33.3521 7.76566 33.5514 7.36398C33.7507 6.96231 34.0497 6.66105 34.4151 6.46022C34.7805 6.25938 35.2455 6.12549 35.777 6.12549C36.2753 6.12549 36.7072 6.22591 37.0726 6.42674C37.438 6.62758 37.7037 6.92884 37.903 7.29704C38.1023 7.66524 38.1688 8.10038 38.1688 8.60248C38.1688 9.13804 38.0691 9.60666 37.8698 9.97486C37.6705 10.3765 37.3715 10.6778 37.0061 10.8786C36.6407 11.0795 36.1757 11.2134 35.6774 11.2134C35.1791 11.2134 34.7473 11.1129 34.3819 10.9121ZM36.5743 10.3096C36.8068 10.1422 37.0061 9.94139 37.1058 9.64013C37.2387 9.37235 37.2719 9.03762 37.2719 8.66942C37.2719 8.30122 37.2054 7.99997 37.1058 7.73218C37.0061 7.4644 36.84 7.23009 36.6075 7.06273C36.375 6.89536 36.076 6.82842 35.7106 6.82842C35.3784 6.82842 35.0795 6.92884 34.8469 7.0962C34.6144 7.26356 34.4151 7.49787 34.3154 7.76566C34.1826 8.03344 34.1493 8.36817 34.1493 8.70289C34.1493 9.0711 34.2158 9.37235 34.3154 9.67361C34.4151 9.94139 34.6144 10.1757 34.8469 10.3431C35.0795 10.5104 35.3784 10.5774 35.7106 10.5774C36.0428 10.5439 36.3418 10.477 36.5743 10.3096Z" fill="white"/>
<path d="M39.1323 6.19263H40.76C41.2915 6.19263 41.7566 6.29305 42.122 6.46041C42.4874 6.62777 42.7864 6.89556 42.9857 7.23028C43.185 7.56501 43.2846 8.00016 43.2846 8.50225C43.2846 9.00434 43.185 9.47296 42.9857 9.87463C42.7864 10.2763 42.4874 10.5776 42.0888 10.8119C41.6901 11.0462 41.2251 11.1466 40.6936 11.1466H39.1323V6.19263ZM40.6272 10.4771C41.0258 10.4771 41.358 10.4102 41.6237 10.2428C41.8895 10.0755 42.0888 9.84116 42.2216 9.57338C42.3545 9.27212 42.4209 8.9374 42.4209 8.5692C42.4209 8.03363 42.2881 7.59848 41.9891 7.3307C41.6901 7.06292 41.2583 6.89556 40.6936 6.89556H39.996V10.5106H40.6272V10.4771Z" fill="white"/>
<path d="M44.2476 6.19263H45.1112V8.70309C45.2773 8.50225 45.4102 8.30141 45.5763 8.10058L47.0047 6.19263H47.968L46.2739 8.36836L48.1341 11.1466H47.1708L45.7424 8.97087L45.1445 9.60685V11.1801H44.2808V6.19263H44.2476Z" fill="white"/>
<path d="M48.6988 6.19263H50.2268C50.7915 6.19263 51.2234 6.29305 51.4891 6.52735C51.7881 6.76166 51.9209 7.06292 51.9209 7.49807C51.9209 7.76585 51.8545 8.00016 51.7549 8.20099C51.6552 8.40183 51.5223 8.5692 51.3562 8.70309C51.1901 8.83698 51.0573 8.9374 50.8912 8.97087L52.4192 11.1466H51.4227L50.1272 9.17171H49.496V11.1466H48.6323V6.19263H48.6988ZM50.0275 8.53572C50.2268 8.53572 50.4261 8.50225 50.559 8.40183C50.7251 8.33489 50.8247 8.201 50.9244 8.0671C51.024 7.93321 51.0573 7.76585 51.0573 7.56501C51.0573 7.3307 50.9908 7.12987 50.8247 7.02945C50.6586 6.92903 50.4261 6.86208 50.1272 6.86208H49.496V8.5692H50.0275V8.53572Z" fill="white"/>
<path d="M53.9475 9.2385L52.3198 6.22595H53.2167L54.014 7.79917C54.1801 8.1339 54.3129 8.40168 54.3461 8.53558C54.4126 8.36821 54.5455 8.1339 54.6783 7.83265L55.542 6.22595H56.3725L54.7448 9.2385V11.1799H53.9143V9.2385H53.9475Z" fill="white"/>
<path d="M56.5054 6.19263H57.4023L58.1995 9.23865C58.2992 9.53991 58.3656 9.84116 58.3988 10.1424C58.4985 9.74074 58.5649 9.43949 58.6314 9.17171L59.495 6.19263H60.3919L61.2888 9.20518C61.3885 9.57338 61.4881 9.87463 61.5214 10.1424C61.5878 9.87463 61.6542 9.60685 61.7207 9.27212L62.5179 6.19263H63.3816L61.9532 11.1466H61.0895L60.2591 8.30141C60.1926 8.0671 60.1262 7.89974 60.093 7.6989C60.0597 7.49807 60.0265 7.3307 59.9601 7.16334C59.9269 7.36417 59.8604 7.56501 59.8272 7.73238C59.794 7.89974 59.7276 8.0671 59.6611 8.26794L58.8307 11.1466H57.967L56.5054 6.19263Z" fill="white"/>
<path d="M66.6368 9.84101H64.6769L64.1786 11.1799H63.3149L65.2416 6.22595H66.0721L68.032 11.1799H67.1351L66.6368 9.84101ZM64.9094 9.13809H66.371L65.8395 7.73223C65.7731 7.53139 65.7067 7.33055 65.6402 7.09625C65.5738 7.29708 65.5074 7.53139 65.4409 7.73223L64.9094 9.13809Z" fill="white"/>
<path d="M68.1982 11.1466L68.2647 10.4771C68.3643 10.5106 68.464 10.5106 68.5636 10.5106C68.763 10.5106 68.8958 10.4771 68.9955 10.3767C69.0951 10.2763 69.1616 10.1759 69.228 10.0085C69.2612 9.84116 69.2944 9.64033 69.2944 9.40602V6.19263H70.1249V9.47296C70.1249 10.042 70.0253 10.4771 69.7927 10.7784C69.5602 11.0797 69.1948 11.2135 68.6965 11.2135C68.5304 11.2135 68.3643 11.1801 68.1982 11.1466Z" fill="white"/>
<path d="M72.9482 6.19263H73.8451L74.6424 9.23865C74.742 9.53991 74.8085 9.84116 74.8417 10.1424C74.9413 9.74074 75.0078 9.43949 75.0742 9.17171L75.9379 6.19263H76.8348L77.7317 9.20518C77.8314 9.57338 77.931 9.87463 77.9642 10.1424C78.0307 9.87463 78.0971 9.60685 78.1635 9.27212L78.9608 6.19263H79.8245L78.3961 11.1466H77.5324L76.7019 8.30141C76.6355 8.0671 76.5691 7.89974 76.5358 7.6989C76.5026 7.49807 76.4694 7.3307 76.403 7.16334C76.3697 7.36417 76.3033 7.56501 76.2701 7.73238C76.2369 7.89974 76.1704 8.0671 76.104 8.26794L75.2735 11.1466H74.4099L72.9482 6.19263Z" fill="white"/>
</svg>
