<svg width="95" height="32" viewBox="0 0 95 32" fill="none" xmlns="http://www.w3.org/2000/svg">
<path d="M87.44 0H6.68645H5.95586C5.42367 0.00198794 4.89252 0.0474933 4.36763 0.136068C3.8426 0.22752 3.33405 0.397478 2.85881 0.64032C2.38392 0.885884 1.9499 1.20453 1.57235 1.58479C1.19335 1.96384 0.876997 2.4016 0.635293 2.88144C0.396885 3.36079 0.230933 3.87338 0.142941 4.4022C0.0556077 4.93144 0.00782626 5.46655 0 6.003C0 6.25113 0 6.49925 0 6.74737V25.2606C0 25.5088 0 25.7489 0 25.997C0.00782626 26.5335 0.0556077 27.0686 0.142941 27.5978C0.229108 28.126 0.392347 28.6385 0.627352 29.1186C0.871134 29.5947 1.18731 30.0295 1.56441 30.4072C1.93994 30.7898 2.37436 31.1088 2.85087 31.3517C3.32611 31.5945 3.83466 31.7645 4.35969 31.8559C4.88488 31.9432 5.41572 31.9913 5.94792 32H89.0362C89.5684 31.9921 90.0993 31.944 90.6244 31.8559C91.1495 31.7645 91.658 31.5945 92.1332 31.3517C92.611 31.1109 93.0458 30.7917 93.4197 30.4072C94.1833 29.6466 94.6844 28.659 94.8491 27.5898C94.9391 27.0607 94.9895 26.5256 95 25.989V25.2526C95 24.9645 95 24.6763 95 24.3802V7.63582C95 7.33967 95 7.05153 95 6.76338V6.01901C94.9895 5.48236 94.9391 4.94726 94.8491 4.41821C94.7648 3.88849 94.5986 3.37536 94.3568 2.89745C93.8666 1.93422 93.0889 1.15035 92.1332 0.656328C91.658 0.413486 91.1495 0.243528 90.6244 0.152076C90.0996 0.0627553 89.5684 0.0172447 89.0362 0.0160084H88.2977L87.44 0Z" fill="#B7B7B7"/>
<path d="M6.68624 31.3191H5.97154C5.47389 31.3106 4.97755 31.2652 4.48655 31.183C4.02625 31.0968 3.58171 30.9403 3.16831 30.7188C2.75753 30.5138 2.38214 30.2436 2.05655 29.9184C1.73664 29.5879 1.46884 29.21 1.26244 28.7978C1.05256 28.3953 0.902717 27.9638 0.817732 27.5172C0.739467 27.0086 0.697008 26.495 0.690674 25.9804C0.690674 25.8123 0.690674 25.252 0.690674 25.252V6.7628C0.690674 6.7628 0.690674 6.20252 0.690674 6.04244C0.701127 5.54097 0.746236 5.04084 0.825673 4.54569C0.901054 4.08348 1.04564 3.63548 1.25449 3.21703C1.457 2.80248 1.72523 2.42399 2.04861 2.09647C2.37244 1.76918 2.74819 1.49867 3.16037 1.29607C3.57334 1.08532 4.01484 0.936994 4.47066 0.855847C4.96433 0.774757 5.46344 0.731943 5.9636 0.727783H89.0201C89.515 0.731354 90.0089 0.774174 90.4972 0.855847C90.9578 0.938132 91.4044 1.08637 91.8233 1.29607C92.2305 1.50315 92.6029 1.77322 92.9272 2.09647C93.2486 2.42863 93.5166 2.80942 93.7213 3.22503C93.9252 3.64202 94.067 4.08702 94.1422 4.54569C94.2244 5.04601 94.2722 5.55148 94.2851 6.05845V6.7708C94.2851 7.06695 94.2851 7.3551 94.2851 7.64324V24.3876C94.2851 24.6758 94.2851 24.9559 94.2851 25.244C94.2851 25.5322 94.2851 25.7403 94.2851 25.9884C94.2788 26.4848 94.2337 26.9799 94.1501 27.4692C94.0784 27.9348 93.9336 28.386 93.7213 28.8058C93.5144 29.2153 93.2466 29.5905 92.9272 29.9184C92.6033 30.2457 92.2276 30.5162 91.8154 30.7188C91.3988 30.9342 90.9513 31.0828 90.4892 31.159C89.9983 31.2415 89.5019 31.287 89.0042 31.2951H6.68624V31.3191Z" fill="#010101"/>
<path d="M19.6465 16.2481C19.6594 15.5809 19.8375 14.9274 20.1649 14.3473C20.4922 13.7671 20.9583 13.2787 21.5207 12.9265C21.1612 12.409 20.6869 11.9832 20.1354 11.6831C19.584 11.3829 18.9706 11.2167 18.3442 11.1976C17.0101 11.0615 15.7157 11.998 15.0407 11.998C14.3657 11.998 13.3016 11.1976 12.1739 11.1976C11.4424 11.2253 10.7307 11.4452 10.1095 11.8355C9.48826 12.2258 8.97899 12.7729 8.63217 13.4227C7.09159 16.104 8.23511 20.042 9.71217 22.2271C10.4428 23.2916 11.3004 24.4762 12.428 24.4362C13.5557 24.3962 13.9448 23.7239 15.271 23.7239C16.5971 23.7239 16.9783 24.4362 18.1218 24.4042C19.2654 24.3722 20.0515 23.3397 20.7662 22.2671C21.2971 21.5142 21.7022 20.6787 21.9654 19.7939C21.2752 19.4989 20.6869 19.005 20.2744 18.3742C19.8618 17.7433 19.6434 17.0037 19.6465 16.2481Z" fill="white"/>
<path d="M17.4787 9.77264C18.1255 8.9942 18.4447 7.99169 18.3681 6.97925C17.3838 7.08633 16.4746 7.56019 15.819 8.30791C15.4993 8.67369 15.2548 9.09969 15.0994 9.56128C14.944 10.0229 14.8809 10.5109 14.9137 10.9973C15.4053 11.0021 15.8916 10.8944 16.3359 10.6823C16.7803 10.4702 17.171 10.1591 17.4787 9.77264Z" fill="white"/>
<path d="M33.5754 21.7229H29.8113L28.9139 24.4123H27.3257L30.8674 14.4713H32.5351L36.0927 24.4123H34.5045L33.5754 21.7229ZM30.2004 20.4823H33.1863L31.7171 16.1201L30.2004 20.4823Z" fill="white"/>
<path d="M43.7877 20.7863C43.7877 23.0354 42.5886 24.4842 40.786 24.4842C40.3291 24.5078 39.8749 24.4018 39.4748 24.1782C39.0748 23.9547 38.7449 23.6225 38.5227 23.2195V26.8053H37.0139V17.2005H38.4433V18.4091C38.6747 18.0012 39.0122 17.6648 39.4195 17.4363C39.8268 17.2077 40.2883 17.0958 40.7542 17.1125C42.5807 17.1125 43.7877 18.5452 43.7877 20.7863ZM42.271 20.7863C42.271 19.3216 41.4768 18.3851 40.3651 18.3851C39.2533 18.3851 38.483 19.3696 38.483 20.7863C38.483 22.203 39.2771 23.1875 40.3651 23.1875C41.453 23.1875 42.271 22.267 42.271 20.7863Z" fill="white"/>
<path d="M51.6969 20.7862C51.6969 23.0354 50.4978 24.4841 48.6951 24.4841C48.2385 24.5067 47.7846 24.4004 47.3847 24.1769C46.9848 23.9535 46.6548 23.6218 46.4319 23.2194V26.8052H44.9231V17.2004H46.3525V18.409C46.5845 17.9999 46.9233 17.6627 47.3321 17.4341C47.7409 17.2055 48.2041 17.0942 48.6713 17.1124C50.4978 17.1124 51.6969 18.5451 51.6969 20.7862ZM50.1801 20.7862C50.1801 19.3215 49.4257 18.385 48.2822 18.385C47.1387 18.385 46.3922 19.3695 46.3922 20.7862C46.3922 22.2029 47.1863 23.1874 48.2822 23.1874C49.3781 23.1874 50.1801 22.267 50.1801 20.7862Z" fill="white"/>
<path d="M56.9301 21.6429C57.0333 22.6274 57.9863 23.2437 59.3124 23.2437C60.6386 23.2437 61.4565 22.5954 61.4565 21.707C61.4565 20.8185 60.9166 20.4743 59.638 20.1542L58.3595 19.842C56.5489 19.4018 55.7071 18.5534 55.7071 17.1687C55.7071 15.4478 57.1921 14.2712 59.2966 14.2712C61.401 14.2712 62.8065 15.4478 62.8542 17.1687H61.3374C61.2421 16.1762 60.4321 15.5679 59.241 15.5679C58.0498 15.5679 57.2398 16.1762 57.2398 17.0566C57.2398 17.761 57.7639 18.1692 59.0345 18.4894L60.1145 18.7535C62.1395 19.2417 62.9813 20.0581 62.9813 21.5149C62.9813 23.3718 61.5121 24.5324 59.1774 24.5324C56.9857 24.5324 55.5086 23.3958 55.4133 21.6029L56.9301 21.6429Z" fill="white"/>
<path d="M66.1657 15.4475V17.1604H67.5316V18.345H66.1657V22.347C66.1657 22.9633 66.4436 23.2514 67.0392 23.2514C67.2005 23.2613 67.3623 23.2613 67.5236 23.2514V24.42C67.2619 24.4705 66.9959 24.4946 66.7295 24.492C65.2763 24.492 64.7045 23.9398 64.7045 22.5311V18.345H63.6404V17.1604H64.6807V15.4475H66.1657Z" fill="white"/>
<path d="M68.3257 20.7865C68.3257 18.5053 69.6598 17.0726 71.7324 17.0726C73.8051 17.0726 75.1471 18.5053 75.1471 20.7865C75.1471 23.0676 73.8289 24.5003 71.7324 24.5003C69.636 24.5003 68.3257 23.0756 68.3257 20.7865ZM73.6463 20.7865C73.6463 19.1857 72.9316 18.2972 71.7324 18.2972C70.5333 18.2972 69.8266 19.2337 69.8266 20.7865C69.8266 22.3393 70.5413 23.2757 71.7324 23.2757C72.9236 23.2757 73.6463 22.3553 73.6463 20.7865Z" fill="white"/>
<path d="M76.3623 17.1606H77.7679V18.3932C77.8685 18.0066 78.0994 17.6674 78.4211 17.4337C78.7428 17.2 79.1351 17.0865 79.5308 17.1126C79.7019 17.1098 79.8726 17.1286 80.039 17.1686V18.5613C79.8261 18.493 79.6034 18.4605 79.3799 18.4652C79.1651 18.4569 78.9509 18.4955 78.7522 18.5784C78.5535 18.6612 78.3749 18.7863 78.2286 18.9452C78.0823 19.104 77.9718 19.2929 77.9046 19.4987C77.8374 19.7046 77.8152 19.9227 77.8394 20.1381V24.4362H76.3623V17.1606Z" fill="white"/>
<path d="M86.8446 22.283C86.6461 23.5957 85.3755 24.5001 83.7476 24.5001C81.659 24.5001 80.3567 23.0834 80.3567 20.8183C80.3567 18.5531 81.6908 17.1124 83.684 17.1124C85.6773 17.1124 86.924 18.4891 86.924 20.6902V21.1945H81.8496V21.2905C81.8257 21.5568 81.8584 21.8251 81.9455 22.0776C82.0326 22.3301 82.1721 22.561 82.3547 22.7549C82.5373 22.9488 82.7588 23.1012 83.0045 23.202C83.2501 23.3029 83.5143 23.3497 83.7793 23.3395C84.1287 23.3728 84.4794 23.2919 84.7797 23.1089C85.08 22.9259 85.3139 22.6503 85.447 22.323L86.8446 22.283ZM81.8576 20.1219H85.447C85.4601 19.8821 85.424 19.6422 85.3409 19.4171C85.2578 19.192 85.1295 18.9866 84.964 18.8138C84.7985 18.6409 84.5994 18.5044 84.3792 18.4128C84.1589 18.3211 83.9223 18.2762 83.684 18.281C83.4439 18.28 83.2059 18.3268 82.9838 18.419C82.7618 18.5111 82.56 18.6467 82.3902 18.8178C82.2204 18.989 82.0859 19.1924 81.9945 19.4162C81.903 19.64 81.8565 19.8799 81.8576 20.1219Z" fill="white"/>
<path d="M30.1606 6.98743C30.5818 6.98743 30.9858 7.15608 31.2836 7.45629C31.5815 7.7565 31.7488 8.16367 31.7488 8.58823C31.7488 9.01279 31.5815 9.41996 31.2836 9.72016C30.9858 10.0204 30.5818 10.189 30.1606 10.189H29.0409V11.7898H28.3103V6.98743H30.1606ZM29.0409 9.50068H29.97C30.6053 9.50068 30.9706 9.17252 30.9706 8.58022C30.9706 7.98793 30.6132 7.64375 29.97 7.64375H29.0409V9.50068Z" fill="white"/>
<path d="M32.4557 9.96495C32.4329 9.72827 32.4594 9.48939 32.5336 9.26366C32.6078 9.03794 32.7281 8.83035 32.8866 8.65426C33.0452 8.47816 33.2385 8.33744 33.4542 8.24114C33.67 8.14484 33.9033 8.09509 34.1392 8.09509C34.3752 8.09509 34.6085 8.14484 34.8242 8.24114C35.0399 8.33744 35.2333 8.47816 35.3918 8.65426C35.5504 8.83035 35.6706 9.03794 35.7448 9.26366C35.819 9.48939 35.8456 9.72827 35.8227 9.96495C35.8456 10.2016 35.819 10.4405 35.7448 10.6662C35.6706 10.892 35.5504 11.0996 35.3918 11.2756C35.2333 11.4517 35.0399 11.5925 34.8242 11.6888C34.6085 11.7851 34.3752 11.8348 34.1392 11.8348C33.9033 11.8348 33.67 11.7851 33.4542 11.6888C33.2385 11.5925 33.0452 11.4517 32.8866 11.2756C32.7281 11.0996 32.6078 10.892 32.5336 10.6662C32.4594 10.4405 32.4329 10.2016 32.4557 9.96495ZM35.1001 9.96495C35.1001 9.16455 34.7507 8.72433 34.1392 8.72433C33.5278 8.72433 33.1863 9.18056 33.1863 9.96495C33.1863 10.7493 33.5278 11.2056 34.1392 11.2056C34.7507 11.2056 35.0604 10.7493 35.0604 9.96495H35.1001Z" fill="white"/>
<path d="M37.4982 11.1976H37.4426V11.7659H36.7676V6.75537H37.4743V8.73236H37.5299C37.6354 8.53404 37.7941 8.3696 37.9879 8.2578C38.1817 8.14599 38.4027 8.09133 38.6258 8.10004C39.5311 8.10004 40.1029 8.8124 40.1029 9.96498C40.1029 11.1176 39.5311 11.8219 38.6258 11.8219C38.3991 11.8319 38.1741 11.779 37.9753 11.6689C37.7764 11.5588 37.6114 11.3958 37.4982 11.1976ZM37.4982 9.96498C37.4982 10.7174 37.8714 11.1896 38.467 11.1896C39.0626 11.1896 39.4199 10.7254 39.4199 9.96498C39.4199 9.2046 39.0626 8.74036 38.467 8.74036C37.8714 8.74036 37.4585 9.2126 37.4585 9.96498H37.4982Z" fill="white"/>
<path d="M40.9606 7.09151C40.9558 6.99883 40.9787 6.90683 41.0264 6.82739C41.074 6.74796 41.1441 6.68474 41.2278 6.64589C41.3114 6.60704 41.4047 6.59436 41.4955 6.60946C41.5864 6.62457 41.6707 6.66678 41.7375 6.73065C41.8043 6.79451 41.8506 6.87709 41.8704 6.96774C41.8902 7.05838 41.8825 7.15293 41.8485 7.23916C41.8144 7.3254 41.7555 7.39936 41.6794 7.45152C41.6032 7.50367 41.5133 7.53161 41.4212 7.53174C41.3618 7.535 41.3025 7.52603 41.2467 7.50538C41.1909 7.48472 41.1399 7.45281 41.0968 7.4116C41.0537 7.3704 41.0194 7.32075 40.9959 7.26572C40.9725 7.21068 40.9605 7.1514 40.9606 7.09151ZM41.0638 8.16405H41.7706V11.7659H41.0638V8.16405Z" fill="white"/>
<path d="M45.9555 10.7894C45.8595 11.1271 45.6463 11.4188 45.3548 11.6112C45.0632 11.8037 44.7128 11.8842 44.3673 11.838C44.1295 11.8509 43.8918 11.8098 43.6719 11.7176C43.4519 11.6255 43.2554 11.4846 43.0968 11.3055C42.9382 11.1265 42.8215 10.9137 42.7556 10.6831C42.6896 10.4524 42.6759 10.2097 42.7155 9.97302C42.6835 9.73673 42.7024 9.49626 42.7711 9.26804C42.8397 9.03981 42.9565 8.82921 43.1133 8.65063C43.2701 8.47205 43.4633 8.3297 43.6798 8.2333C43.8962 8.13691 44.1307 8.08874 44.3673 8.09208C45.3679 8.09208 45.9555 8.77242 45.9555 9.90899V10.1571H43.4461V10.1971C43.4352 10.3268 43.4508 10.4573 43.4919 10.5806C43.533 10.704 43.5987 10.8175 43.6851 10.9143C43.7714 11.011 43.8764 11.0889 43.9938 11.1432C44.1111 11.1974 44.2382 11.2268 44.3673 11.2297C44.5363 11.2495 44.7073 11.2182 44.8586 11.1398C45.0099 11.0614 45.1346 10.9395 45.217 10.7894H45.9555ZM43.4699 9.62885H45.2805C45.2899 9.50519 45.2728 9.38095 45.2303 9.26454C45.1879 9.14814 45.1211 9.04231 45.0344 8.95424C44.9478 8.86617 44.8434 8.79791 44.7283 8.75411C44.6132 8.71031 44.49 8.69199 44.3673 8.70039C44.246 8.69932 44.1257 8.72261 44.0135 8.76889C43.9013 8.81517 43.7993 8.88352 43.7135 8.96995C43.6278 9.05638 43.56 9.15915 43.5141 9.27228C43.4681 9.38541 43.445 9.50663 43.4461 9.62885H43.4699Z" fill="white"/>
<path d="M46.9243 8.16407H47.5993V8.71635H47.6549C47.73 8.52451 47.8634 8.36156 48.036 8.25085C48.2086 8.14014 48.4116 8.08734 48.6158 8.10004C48.7212 8.08612 48.828 8.08612 48.9334 8.10004V8.80439C48.8035 8.77208 48.6702 8.75595 48.5364 8.75637C48.42 8.74637 48.3028 8.7609 48.1922 8.79904C48.0817 8.83718 47.9803 8.89808 47.8944 8.97789C47.8085 9.05769 47.74 9.15464 47.6933 9.26257C47.6466 9.3705 47.6227 9.48705 47.6231 9.60479V11.7339H46.9243V8.16407Z" fill="white"/>
<path d="M49.6321 11.2854L51.6015 8.82015V8.76412H49.648V8.16382H52.4433V8.67607L50.5215 11.0773V11.1333H52.4591V11.7336H49.6321V11.2854Z" fill="white"/>
<path d="M59.1221 11.7656H58.3835L57.645 9.10829H57.5894L56.8588 11.7656H56.1283L55.1436 8.16382H55.8583L56.5015 10.9092H56.5571L57.2877 8.16382H57.9627L58.7012 10.9092H58.7568L59.3921 8.16382H60.0988L59.1221 11.7656Z" fill="white"/>
</svg>
