<svg width="108" height="32" viewBox="0 0 108 32" fill="none" xmlns="http://www.w3.org/2000/svg">
<path d="M104 32H4C1.76 32 0 30.16 0 28V4C0 1.76 1.84 0 4 0H104C106.24 0 108 1.84 108 4V28C108 30.16 106.24 32 104 32Z" fill="black"/>
<path d="M104 0.64C105.84 0.64 107.36 2.16 107.36 4V28C107.36 29.84 105.84 31.36 104 31.36H4C2.16 31.36 0.64 29.84 0.64 28V4C0.64 2.16 2.16 0.64 4 0.64H104ZM104 0H4C1.76 0 0 1.84 0 4V28C0 30.24 1.84 32 4 32H104C106.24 32 108 30.16 108 28V4C108 1.84 106.24 0 104 0Z" fill="#A6A6A6"/>
<path d="M54.4799 17.4401C52.5599 17.4401 51.0399 18.8801 51.0399 20.8801C51.0399 22.8001 52.5599 24.3201 54.4799 24.3201C56.3999 24.3201 57.9199 22.8801 57.9199 20.8801C57.9199 18.8001 56.3999 17.4401 54.4799 17.4401ZM54.4799 22.8801C53.4399 22.8801 52.5599 22.0001 52.5599 20.8001C52.5599 19.6001 53.4399 18.7201 54.4799 18.7201C55.5199 18.7201 56.3999 19.5201 56.3999 20.8001C56.3999 22.0001 55.5199 22.8801 54.4799 22.8801ZM47.0399 17.4401C45.1199 17.4401 43.5999 18.8801 43.5999 20.8801C43.5999 22.8001 45.1199 24.3201 47.0399 24.3201C48.9599 24.3201 50.4799 22.8801 50.4799 20.8801C50.4799 18.8001 48.9599 17.4401 47.0399 17.4401ZM47.0399 22.8801C45.9999 22.8801 45.1199 22.0001 45.1199 20.8001C45.1199 19.6001 45.9999 18.7201 47.0399 18.7201C48.0799 18.7201 48.9599 19.5201 48.9599 20.8001C48.9599 22.0001 48.0799 22.8801 47.0399 22.8801ZM38.1599 18.4801V19.9201H41.5999C41.5199 20.7201 41.1999 21.3601 40.7999 21.7601C40.3199 22.2401 39.5199 22.8001 38.1599 22.8001C35.9999 22.8001 34.3999 21.1201 34.3999 18.9601C34.3999 16.8001 36.0799 15.1201 38.1599 15.1201C39.2799 15.1201 40.1599 15.6001 40.7999 16.1601L41.8399 15.1201C40.9599 14.3201 39.8399 13.6801 38.2399 13.6801C35.3599 13.6801 32.8799 16.0801 32.8799 18.9601C32.8799 21.8401 35.3599 24.2401 38.2399 24.2401C39.8399 24.2401 40.9599 23.7601 41.9199 22.7201C42.8799 21.7601 43.1999 20.4001 43.1999 19.3601C43.1999 19.0401 43.1999 18.7201 43.1199 18.4801H38.1599V18.4801ZM74.4799 19.6001C74.1599 18.8001 73.3599 17.4401 71.5999 17.4401C69.8399 17.4401 68.3999 18.8001 68.3999 20.8801C68.3999 22.8001 69.8399 24.3201 71.7599 24.3201C73.2799 24.3201 74.2399 23.3601 74.5599 22.8001L73.4399 22.0001C73.0399 22.5601 72.5599 22.9601 71.7599 22.9601C70.9599 22.9601 70.4799 22.6401 70.0799 21.9201L74.6399 20.0001L74.4799 19.6001ZM69.8399 20.7201C69.8399 19.4401 70.8799 18.7201 71.5999 18.7201C72.1599 18.7201 72.7199 19.0401 72.8799 19.4401L69.8399 20.7201ZM66.0799 24.0001H67.5999V14.0001H66.0799V24.0001ZM63.6799 18.1601C63.2799 17.7601 62.6399 17.3601 61.8399 17.3601C60.1599 17.3601 58.5599 18.8801 58.5599 20.8001C58.5599 22.7201 60.0799 24.1601 61.8399 24.1601C62.6399 24.1601 63.2799 23.7601 63.5999 23.3601H63.6799V23.8401C63.6799 25.1201 62.9599 25.8401 61.8399 25.8401C60.9599 25.8401 60.3199 25.2001 60.1599 24.6401L58.8799 25.2001C59.2799 26.0801 60.2399 27.2001 61.9199 27.2001C63.6799 27.2001 65.1199 26.1601 65.1199 23.6801V17.6001H63.6799V18.1601V18.1601ZM61.9199 22.8801C60.8799 22.8801 59.9999 22.0001 59.9999 20.8001C59.9999 19.6001 60.8799 18.7201 61.9199 18.7201C62.9599 18.7201 63.7599 19.6001 63.7599 20.8001C63.7599 22.0001 62.9599 22.8801 61.9199 22.8801ZM81.4399 14.0001H77.8399V24.0001H79.3599V20.2401H81.4399C83.1199 20.2401 84.7199 19.0401 84.7199 17.1201C84.7199 15.2001 83.1199 14.0001 81.4399 14.0001ZM81.5199 18.8001H79.3599V15.3601H81.5199C82.6399 15.3601 83.2799 16.3201 83.2799 17.0401C83.1999 17.9201 82.5599 18.8001 81.5199 18.8001ZM90.7199 17.3601C89.5999 17.3601 88.4799 17.8401 88.0799 18.8801L89.4399 19.4401C89.7599 18.8801 90.2399 18.7201 90.7999 18.7201C91.5999 18.7201 92.3199 19.2001 92.3999 20.0001V20.0801C92.1599 19.9201 91.5199 19.6801 90.8799 19.6801C89.4399 19.6801 87.9999 20.4801 87.9999 21.9201C87.9999 23.2801 89.1999 24.1601 90.4799 24.1601C91.5199 24.1601 91.9999 23.6801 92.3999 23.2001H92.4799V24.0001H93.9199V20.1601C93.7599 18.4001 92.3999 17.3601 90.7199 17.3601ZM90.5599 22.8801C90.0799 22.8801 89.3599 22.6401 89.3599 22.0001C89.3599 21.2001 90.2399 20.9601 90.9599 20.9601C91.5999 20.9601 91.9199 21.1201 92.3199 21.2801C92.1599 22.2401 91.3599 22.8801 90.5599 22.8801ZM98.9599 17.6001L97.2799 21.9201H97.1999L95.4399 17.6001H93.8399L96.4799 23.6801L94.9599 27.0401H96.4799L100.56 17.6001H98.9599ZM85.5199 24.0001H87.0399V14.0001H85.5199V24.0001Z" fill="white"/>
<path d="M8.31992 6C8.07992 6.24 7.91992 6.64 7.91992 7.12V24.8C7.91992 25.28 8.07992 25.68 8.31992 25.92L8.39992 26L18.3199 16.08V16V15.92L8.31992 6Z" fill="url(#paint0_linear_571_1958)"/>
<path d="M21.5998 19.4399L18.3198 16.1599V15.9999V15.9199L21.5998 12.6399L21.6798 12.7199L25.5998 14.9599C26.7198 15.5999 26.7198 16.6399 25.5998 17.2799L21.5998 19.4399Z" fill="url(#paint1_linear_571_1958)"/>
<path d="M21.6798 19.36L18.3198 16L8.31982 26C8.71982 26.4 9.27982 26.4 9.99982 26.08L21.6798 19.36Z" fill="url(#paint2_linear_571_1958)"/>
<path d="M21.36 12.503L9.68 5.86296C8.96 5.46296 8.4 5.54296 8 5.94296L18 15.863L21.36 12.503Z" fill="url(#paint3_linear_571_1958)"/>
<path opacity="0.2" d="M21.5998 19.28L9.99982 25.84C9.35982 26.24 8.79982 26.16 8.39982 25.84L8.31982 25.92L8.39982 26C8.79982 26.32 9.35982 26.4 9.99982 26L21.5998 19.28Z" fill="black"/>
<path opacity="0.12" d="M8.32 25.84C8.08 25.6 8 25.2 8 24.72V24.8C8 25.28 8.16 25.68 8.4 25.92V25.84H8.32Z" fill="black"/>
<path opacity="0.12" d="M25.6001 17.04L21.6001 19.28L21.6801 19.36L25.6001 17.12C26.1601 16.8 26.4001 16.4 26.4001 16C26.4001 16.4 26.0801 16.72 25.6001 17.04Z" fill="black"/>
<path opacity="0.25" d="M10 6.07993L25.6 14.9599C26.08 15.2799 26.4 15.5999 26.4 15.9999C26.4 15.5999 26.16 15.1999 25.6 14.8799L10 5.99993C8.88 5.35993 8 5.91993 8 7.19993V7.27993C8 5.99993 8.88 5.43993 10 6.07993Z" fill="white"/>
<path d="M33.7601 10.4H33.1201V5.59998H34.7201C35.1201 5.59998 35.4401 5.75998 35.7601 5.99998C36.0801 6.23998 36.2401 6.63997 36.2401 7.03997C36.2401 7.43997 36.0801 7.75998 35.7601 8.07998C35.4401 8.31998 35.1201 8.47998 34.7201 8.47998H33.6801V10.4H33.7601ZM33.7601 7.83997H34.8001C35.0401 7.83997 35.2801 7.75998 35.4401 7.59998C35.6001 7.43998 35.6801 7.19997 35.6801 7.03997C35.6801 6.79997 35.6001 6.63998 35.4401 6.47998C35.2801 6.31998 35.0401 6.23997 34.8001 6.23997H33.7601V7.83997Z" fill="white" stroke="white" stroke-width="0.2" stroke-miterlimit="10"/>
<path d="M40.9597 9.7599C40.4797 10.2399 39.9197 10.4799 39.1997 10.4799C38.4797 10.4799 37.9197 10.2399 37.4397 9.7599C36.9597 9.2799 36.7197 8.7199 36.7197 7.9999C36.7197 7.2799 36.9597 6.7199 37.4397 6.2399C37.9197 5.7599 38.4797 5.5199 39.1997 5.5199C39.9197 5.5199 40.4797 5.7599 40.9597 6.2399C41.4397 6.7199 41.6797 7.2799 41.6797 7.9999C41.6797 8.7199 41.4397 9.2799 40.9597 9.7599ZM37.9197 9.3599C38.2397 9.6799 38.7197 9.9199 39.1997 9.9199C39.6797 9.9199 40.1597 9.7599 40.4797 9.3599C40.7997 9.0399 41.0397 8.5599 41.0397 7.9999C41.0397 7.4399 40.8797 6.9599 40.4797 6.6399C40.1597 6.3199 39.6797 6.0799 39.1997 6.0799C38.7197 6.0799 38.2397 6.2399 37.9197 6.6399C37.5997 6.9599 37.3597 7.4399 37.3597 7.9999C37.3597 8.5599 37.5197 9.0399 37.9197 9.3599Z" fill="white" stroke="white" stroke-width="0.2" stroke-miterlimit="10"/>
<path d="M42.5601 10.4V5.59998H44.3201C44.7201 5.59998 45.0401 5.75998 45.2801 5.99998C45.5201 6.23998 45.6801 6.55998 45.6801 6.95998C45.6801 7.19998 45.6001 7.35998 45.5201 7.59998C45.4401 7.75998 45.2801 7.91998 45.0401 7.99998C45.2801 8.07998 45.4401 8.23998 45.6001 8.39998C45.7601 8.55998 45.8401 8.79998 45.8401 9.11998C45.8401 9.51998 45.6801 9.83998 45.4401 10.08C45.1201 10.32 44.8001 10.48 44.4001 10.48H42.5601V10.4ZM43.1201 7.67998H44.2401C44.4801 7.67998 44.6401 7.59998 44.8001 7.43998C44.9601 7.27998 45.0401 7.11998 45.0401 6.95998C45.0401 6.79998 44.9601 6.55998 44.8001 6.39998C44.6401 6.23998 44.4801 6.15998 44.2401 6.15998H43.1201V7.67998ZM43.1201 9.83998H44.4001C44.6401 9.83998 44.8001 9.75998 44.9601 9.59998C45.1201 9.43998 45.2001 9.27998 45.2001 9.03998C45.2001 8.87998 45.1201 8.63998 44.9601 8.47998C44.8001 8.31998 44.6401 8.23998 44.4001 8.23998H43.2001V9.83998H43.1201Z" fill="white" stroke="white" stroke-width="0.2" stroke-miterlimit="10"/>
<path d="M46.6396 10.4V5.59998H47.2796V10.4H46.6396Z" fill="white" stroke="white" stroke-width="0.2" stroke-miterlimit="10"/>
<path d="M51.1999 6.15998H49.0399V7.67998H51.0399V8.23997H49.0399V9.75998H51.1999V10.4H48.3999V5.59998H51.1999V6.15998Z" fill="white" stroke="white" stroke-width="0.2" stroke-miterlimit="10"/>
<path d="M52.1597 10.4V5.59998H53.7597C54.1597 5.59998 54.4797 5.75998 54.7997 5.99998C55.1197 6.23998 55.2797 6.63997 55.2797 7.03997C55.2797 7.35997 55.1997 7.67998 54.9597 7.91998C54.7197 8.15998 54.4797 8.31998 54.1597 8.39998L55.5197 10.32H54.7997L53.5197 8.39998H52.7997V10.4H52.1597ZM52.7197 7.83997H53.6797C53.9197 7.83997 54.1597 7.75998 54.3197 7.59998C54.4797 7.43998 54.5597 7.19998 54.5597 6.95998C54.5597 6.71998 54.4797 6.55998 54.3197 6.39998C54.1597 6.23998 53.9197 6.15998 53.6797 6.15998H52.6397V7.83997H52.7197Z" fill="white" stroke="white" stroke-width="0.2" stroke-miterlimit="10"/>
<path d="M55.8398 10.4V9.75998L58.3998 6.15998H55.9998V5.59998H59.1998V6.23997L56.6398 9.83997H59.1998V10.4H55.8398Z" fill="white" stroke="white" stroke-width="0.2" stroke-miterlimit="10"/>
<path d="M61.4399 10.4V9.75998L63.9999 6.15998H61.5199V5.59998H64.7199V6.23997L62.1599 9.83997H64.7199V10.4H61.4399Z" fill="white" stroke="white" stroke-width="0.2" stroke-miterlimit="10"/>
<defs>
<linearGradient id="paint0_linear_571_1958" x1="17.4397" y1="6.96776" x2="4.01376" y2="20.3937" gradientUnits="userSpaceOnUse">
<stop stop-color="#00A0FF"/>
<stop offset="0.00657445" stop-color="#00A1FF"/>
<stop offset="0.2601" stop-color="#00BEFF"/>
<stop offset="0.5122" stop-color="#00D2FF"/>
<stop offset="0.7604" stop-color="#00DFFF"/>
<stop offset="1" stop-color="#00E3FF"/>
</linearGradient>
<linearGradient id="paint1_linear_571_1958" x1="27.0673" y1="16.001" x2="7.70983" y2="16.001" gradientUnits="userSpaceOnUse">
<stop stop-color="#FFE000"/>
<stop offset="0.4087" stop-color="#FFBD00"/>
<stop offset="0.7754" stop-color="#FFA500"/>
<stop offset="1" stop-color="#FF9C00"/>
</linearGradient>
<linearGradient id="paint2_linear_571_1958" x1="19.8614" y1="17.8369" x2="1.65478" y2="36.0435" gradientUnits="userSpaceOnUse">
<stop stop-color="#FF3A44"/>
<stop offset="1" stop-color="#C31162"/>
</linearGradient>
<linearGradient id="paint3_linear_571_1958" x1="5.51784" y1="0.00391593" x2="13.6479" y2="8.13391" gradientUnits="userSpaceOnUse">
<stop stop-color="#32A071"/>
<stop offset="0.0685" stop-color="#2DA771"/>
<stop offset="0.4762" stop-color="#15CF74"/>
<stop offset="0.8009" stop-color="#06E775"/>
<stop offset="1" stop-color="#00F076"/>
</linearGradient>
</defs>
</svg>
