<svg width="93" height="17" viewBox="0 0 93 17" fill="none" xmlns="http://www.w3.org/2000/svg">
<path fill-rule="evenodd" clip-rule="evenodd" d="M73.6676 2.31842C73.9691 2.31842 74.2388 2.50419 74.3468 2.78458L74.3521 2.79824L76.4256 8.51315L78.171 2.83276C78.2634 2.53176 78.5386 2.32488 78.8525 2.31842H78.8672H80.5398C80.6223 2.31842 80.7042 2.33258 80.782 2.3599C81.157 2.49227 81.3559 2.90057 81.2308 3.27633L81.2268 3.28899L78.1062 12.1369C77.0348 15.1788 75.3661 16.4851 72.7931 16.4998L72.7149 16.5H71.757C71.3547 16.5 71.0286 16.1739 71.0286 15.7716V14.3835C71.0286 13.9812 71.3547 13.6551 71.757 13.6551H72.3354C73.7386 13.6551 74.4074 13.2187 74.853 12.0117L74.8664 11.9747L71.2578 3.32724C71.2205 3.23833 71.2017 3.14296 71.2017 3.0466C71.2017 2.64898 71.5206 2.32537 71.9169 2.31842H71.9298H73.6676Z" fill="white"/>
<path fill-rule="evenodd" clip-rule="evenodd" d="M87.6506 2.01111C90.61 2.01111 92.7913 4.29971 92.7913 7.35796L92.7923 7.5025C92.7925 7.72925 92.7819 8.02131 92.6572 8.23937C92.5874 8.36181 92.4742 8.45842 92.3507 8.50784C92.2089 8.56422 92.0557 8.56521 91.9588 8.56521L88.7742 8.5677C87.8028 8.56894 86.7051 8.57093 85.4819 8.57291C85.8667 9.62619 86.7992 9.99077 87.9141 9.99077C88.2484 9.99077 88.5633 9.93812 88.8462 9.84648C88.9304 9.81916 89.0118 9.78861 89.0901 9.75484C89.2341 9.6925 89.6104 9.37013 89.9168 9.37013C90.2134 9.37013 90.3721 9.50772 90.7809 9.73447L90.8233 9.75782C91.0898 9.90311 91.3153 10.038 91.5041 10.1554L91.5798 10.2034C91.6146 10.225 91.6476 10.2461 91.6794 10.2664C91.9506 10.4398 92.1207 11.0373 91.2835 11.6232C91.2532 11.6446 91.2237 11.6669 91.1931 11.6885C90.2842 12.332 89.1978 12.7046 87.8734 12.7046C84.4073 12.7046 82.2588 10.3755 82.2588 7.35796C82.2588 4.34019 84.4478 2.01111 87.6506 2.01111ZM87.7244 4.77054C86.5775 4.77054 85.8091 5.31668 85.5178 6.31184L85.5091 6.34214H89.8786C89.5533 5.18828 88.6388 4.77054 87.7244 4.77054Z" fill="white"/>
<path fill-rule="evenodd" clip-rule="evenodd" d="M35.1229 7.36789C35.1229 4.34441 32.9299 2.01111 30.2703 2.01111C28.9098 2.01111 27.9151 2.47777 27.2448 3.24891V3.02341V3.01049C27.2378 2.61412 26.9145 2.29498 26.5166 2.29498H24.9274L24.9145 2.29523C24.5184 2.30218 24.1995 2.62554 24.1995 3.02341V15.7708V15.7837C24.2064 16.18 24.5298 16.4992 24.9274 16.4992H26.5166L26.5295 16.4989C26.9257 16.492 27.2448 16.1686 27.2448 15.7708V11.4871L27.2649 11.5102C27.935 12.2674 28.9234 12.7249 30.2703 12.7249C32.9299 12.7249 35.1229 10.3914 35.1229 7.36789ZM27.2655 7.39612C27.2655 5.87618 28.28 4.92399 29.6803 4.92399C31.0805 4.92399 32.095 5.87618 32.095 7.39612C32.095 8.91581 31.0805 9.86825 29.6803 9.86825C28.28 9.86825 27.2655 8.91581 27.2655 7.39612Z" fill="white"/>
<path fill-rule="evenodd" clip-rule="evenodd" d="M51.215 2.31842C51.5165 2.31842 51.7862 2.50419 51.8942 2.78458L51.8994 2.79824L53.9727 8.51315L55.7184 2.83276C55.8108 2.53176 56.086 2.32488 56.3999 2.31842H56.4145H58.0872C58.1697 2.31842 58.2516 2.33258 58.3293 2.3599C58.7044 2.49227 58.9033 2.90057 58.7781 3.27633L58.7739 3.28899L55.6536 12.1369C54.5822 15.1788 52.9135 16.4851 50.3405 16.4998L50.2623 16.5H49.3041C48.902 16.5 48.5759 16.1739 48.5759 15.7716V14.3835C48.5759 13.9812 48.902 13.6551 49.3041 13.6551H49.8828C51.286 13.6551 51.9548 13.2187 52.4001 12.0117L52.4138 11.9747L48.8052 3.32724C48.7679 3.23833 48.749 3.14296 48.749 3.0466C48.749 2.64898 49.0679 2.32537 49.4643 2.31842H49.4772H51.215Z" fill="white"/>
<path fill-rule="evenodd" clip-rule="evenodd" d="M44.2068 3.22358C43.5373 2.46783 42.5486 2.01111 41.2017 2.01111C38.5419 2.01111 36.3491 4.34019 36.3491 7.35796C36.3491 10.3755 38.5419 12.7046 41.2017 12.7046C42.5622 12.7046 43.5571 12.2389 44.227 11.4692V11.693L44.2272 11.7059C44.2339 12.102 44.5575 12.4212 44.9554 12.4212H46.5444L46.5573 12.4209C46.9537 12.414 47.2728 12.0909 47.2728 11.693V3.02291L47.2725 3.00999C47.2656 2.61362 46.9425 2.29473 46.5444 2.29473H44.9554H44.9425C44.5461 2.30168 44.227 2.62504 44.227 3.02291V3.24643L44.2068 3.22358ZM39.3769 7.39612C39.3769 5.87643 40.3915 4.92399 41.7914 4.92399C43.1917 4.92399 44.2062 5.87643 44.2062 7.39612C44.2062 8.91581 43.1917 9.86825 41.7914 9.86825C40.3915 9.86825 39.3769 8.91581 39.3769 7.39612Z" fill="white"/>
<path fill-rule="evenodd" clip-rule="evenodd" d="M65.1977 2.01111C68.1571 2.01111 70.3384 4.29971 70.3384 7.35796L70.3392 7.5025C70.3397 7.72925 70.329 8.02131 70.2043 8.23937C70.1345 8.36181 70.021 8.45842 69.8978 8.50784C69.756 8.56422 69.6025 8.56521 69.5059 8.56521L66.3213 8.5677C65.3499 8.56894 64.2522 8.57093 63.0288 8.57291C63.4138 9.62619 64.3463 9.99077 65.4612 9.99077C65.7955 9.99077 66.1104 9.93812 66.3933 9.84648C66.4775 9.81916 66.5587 9.78861 66.6372 9.75484C66.7812 9.6925 67.1575 9.37013 67.4639 9.37013C67.7655 9.37013 67.9244 9.51244 68.3488 9.74614L68.3704 9.75782C68.6369 9.90311 68.8624 10.038 69.0509 10.1554L69.1269 10.2034C69.1615 10.225 69.1947 10.2461 69.2265 10.2664C69.4977 10.4398 69.6679 11.0373 68.8306 11.6232C68.8004 11.6446 68.7705 11.6669 68.7402 11.6885C67.8313 12.332 66.745 12.7046 65.4205 12.7046C61.9544 12.7046 59.8059 10.3755 59.8059 7.35796C59.8059 4.34019 61.9949 2.01111 65.1977 2.01111ZM65.2714 4.77054C64.1245 4.77054 63.356 5.31668 63.0647 6.31184L63.056 6.34214H67.4256C67.1003 5.18828 66.1858 4.77054 65.2714 4.77054Z" fill="white"/>
<path fill-rule="evenodd" clip-rule="evenodd" d="M14.986 9.91117C14.0715 8.1923 11.5736 7.29524 9.45783 8.41979C7.34234 9.5441 6.45198 12.0058 7.469 13.9181C8.48626 15.8305 11.0259 16.4692 13.1417 15.3449C15.2572 14.2206 15.9002 11.63 14.986 9.91117Z" fill="white"/>
<path fill-rule="evenodd" clip-rule="evenodd" d="M14.4886 4.77636C16.1191 5.15337 16.8366 3.10692 15.2814 2.10083C13.7264 1.09449 9.79845 -0.550864 4.38057 1.43201C2.14537 2.25009 1.11644 3.20477 0.526343 4.01888C-0.0637504 4.83299 -0.213012 6.04298 0.36516 7.14021C0.94358 8.2377 3.30147 9.25024 5.47259 7.33766C9.49471 3.79437 12.8579 4.39936 14.4886 4.77636Z" fill="white"/>
</svg>
